<svg width="134" height="161" viewBox="0 0 134 161" fill="none" xmlns="http://www.w3.org/2000/svg">
<mask id="mask0_4190_2988" style="mask-type:luminance" maskUnits="userSpaceOnUse" x="8" y="28" width="11" height="28">
<path d="M18.8256 55.6948L16.1618 55.2853C11.8628 54.6229 8.68945 50.9245 8.68945 46.5747V38.0777C8.68945 33.7279 11.8628 30.0285 16.1618 29.3661L18.8256 28.9566V55.6948Z" fill="white"/>
</mask>
<g mask="url(#mask0_4190_2988)">
<path d="M18.8258 55.6953L16.1621 55.2854C11.863 54.6234 8.6897 50.9235 8.6897 46.5743V38.0772C8.6897 33.727 11.863 30.0282 16.1621 29.3662L18.8258 28.9563V55.6953Z" fill="url(#paint0_linear_4190_2988)"/>
</g>
<mask id="mask1_4190_2988" style="mask-type:luminance" maskUnits="userSpaceOnUse" x="115" y="28" width="11" height="28">
<path d="M115.176 55.6948L117.839 55.2853C122.139 54.6229 125.313 50.9245 125.313 46.5747V38.0777C125.313 33.7279 122.139 30.0285 117.839 29.3661L115.176 28.9566V55.6948Z" fill="white"/>
</mask>
<g mask="url(#mask1_4190_2988)">
<path d="M115.176 55.6953L117.84 55.2854C122.139 54.6234 125.313 50.9235 125.313 46.5743V38.0772C125.313 33.727 122.139 30.0282 117.84 29.3662L115.176 28.9563V55.6953Z" fill="url(#paint1_linear_4190_2988)"/>
</g>
<mask id="mask2_4190_2988" style="mask-type:luminance" maskUnits="userSpaceOnUse" x="0" y="85" width="33" height="61">
<path d="M10.5551 145.689C9.89385 145.689 9.29558 145.62 8.78873 145.516C2.5957 144.244 -0.258178 136.837 1.42223 128.873C7.60181 99.5973 19.2916 85.6907 30.6042 85.6907C30.6478 85.6907 30.6903 85.6907 30.734 85.6917C31.2517 85.6958 31.8628 85.778 32.4862 85.9557C27.9643 90.153 25.4568 95.4743 25.4568 101.657C25.4568 106.135 25.7167 110.377 26.2134 114.375C24.825 120.204 23.937 126.108 22.6183 132.354C20.2896 143.392 14.3778 145.689 10.5551 145.689Z" fill="white"/>
</mask>
<g mask="url(#mask2_4190_2988)">
<path d="M10.5551 145.689C9.89385 145.689 9.29558 145.62 8.78873 145.516C2.5957 144.244 -0.258178 136.837 1.42223 128.873C7.60181 99.5973 19.2916 85.6907 30.6042 85.6907C30.6478 85.6907 30.6903 85.6907 30.734 85.6917C31.2517 85.6958 31.8628 85.778 32.4862 85.9557C27.9643 90.153 25.4568 95.4743 25.4568 101.657C25.4568 106.135 25.7167 110.377 26.2134 114.375C24.825 120.204 23.937 126.108 22.6183 132.354C20.2896 143.392 14.3778 145.689 10.5551 145.689Z" fill="url(#paint2_linear_4190_2988)"/>
</g>
<mask id="mask3_4190_2988" style="mask-type:luminance" maskUnits="userSpaceOnUse" x="101" y="85" width="33" height="61">
<path d="M123.445 145.689C119.623 145.689 113.711 143.392 111.382 132.354C110.064 126.109 109.176 120.204 107.786 114.376C108.002 112.645 108.173 110.868 108.296 109.047C108.46 106.66 108.543 104.197 108.543 101.657C108.543 95.4743 106.036 90.153 101.514 85.9557C102.138 85.778 102.748 85.6958 103.266 85.6917C103.31 85.6907 103.352 85.6907 103.397 85.6907C114.709 85.6907 126.398 99.5973 132.578 128.873C134.259 136.837 131.404 144.244 125.212 145.516C124.705 145.62 124.106 145.689 123.445 145.689Z" fill="white"/>
</mask>
<g mask="url(#mask3_4190_2988)">
<path d="M123.446 145.689C119.622 145.689 113.711 143.392 111.381 132.355C110.064 126.109 109.175 120.204 107.786 114.376C108.002 112.645 108.173 110.868 108.296 109.047C108.46 106.66 108.543 104.197 108.543 101.657C108.543 95.4743 106.036 90.1526 101.514 85.9554C102.138 85.7779 102.748 85.6956 103.266 85.6913C103.31 85.6913 103.352 85.6913 103.396 85.6913C114.708 85.6913 126.398 99.5974 132.577 128.873C134.259 136.837 131.404 144.244 125.212 145.516C124.705 145.62 124.106 145.689 123.446 145.689Z" fill="url(#paint3_linear_4190_2988)"/>
</g>
<mask id="mask4_4190_2988" style="mask-type:luminance" maskUnits="userSpaceOnUse" x="25" y="76" width="84" height="84">
<path d="M58.638 159.528H58.6369C58.638 159.528 58.638 159.528 58.638 159.528ZM58.5918 159.518C58.5878 159.517 58.5828 159.515 58.5787 159.514C58.5828 159.515 58.5878 159.516 58.5918 159.518ZM58.5697 159.512C58.5637 159.511 58.5577 159.509 58.5506 159.508C58.5577 159.509 58.5627 159.511 58.5697 159.512ZM58.5476 159.507C44.1645 156.029 32.4992 143.496 27.7527 123.105C32.596 124.787 39.868 127.046 46.9767 128.248V132.921L47.5843 133.06C47.6721 133.08 56.4872 135.064 66.9994 135.064C77.5116 135.064 86.3267 133.08 86.414 133.06L87.0222 132.921V128.248C88.6973 127.965 90.3804 127.623 92.0405 127.244C86.0758 138.57 75.5063 147.483 63.2146 151.143C59.4268 152.271 55.4615 152.919 51.5146 152.919C48.9924 152.919 46.4776 152.654 44.0221 152.081C48.3599 155.736 53.271 158.231 58.5476 159.507ZM66.9994 133.502C58.2395 133.502 50.6839 132.102 48.5391 131.665V126.918L47.8812 126.813C40.2117 125.588 32.2427 123.043 27.3578 121.311C26.8942 119.088 26.5108 116.776 26.2127 114.376C25.716 110.378 25.4561 106.136 25.4561 101.658C25.4561 95.4753 27.9636 90.154 32.4855 85.9567C37.374 81.4182 44.6154 78.1925 53.5866 76.6107C57.3774 76.8938 61.5606 77.0513 66.1754 77.0513C71.2528 77.0513 75.8084 76.8606 79.8933 76.5214C83.394 77.1095 86.6368 77.9456 89.5855 79.0094C97.2574 90.8445 99.4635 106.16 95.219 119.635C94.5947 121.617 93.834 123.551 92.9478 125.426C90.7036 125.968 88.3982 126.449 86.1179 126.813L85.4595 126.918V131.665C83.3167 132.103 75.7673 133.502 66.9994 133.502ZM44.182 84.5115C43.5304 84.5115 42.8724 84.6801 42.2782 85.0233C38.4722 87.2223 35.28 90.4922 33.2306 94.3844C30.4437 99.6776 29.8017 106.064 31.4798 111.807C31.6882 112.518 32.0379 113.325 32.7602 113.495C32.8546 113.517 32.9455 113.527 33.0333 113.527C34.0608 113.527 34.6436 112.086 34.8654 110.974C36.0499 105.051 39.2824 99.5602 43.884 95.648C45.3499 94.4034 47.0077 93.2402 47.8094 91.4918C48.6636 89.6301 48.3112 87.2775 46.9495 85.7469L46.9269 85.7219C46.2068 84.924 45.2023 84.5115 44.182 84.5115ZM108.542 101.658C108.542 91.7618 102.115 84.0708 91.2887 79.6628C95.3525 81.3168 98.796 83.4345 101.513 85.9567C106.035 90.154 108.542 95.4753 108.542 101.658ZM91.2867 79.6618C91.2767 79.6578 91.2666 79.6528 91.2556 79.6488C91.2656 79.6528 91.2767 79.6578 91.2867 79.6618ZM91.2074 79.6297C91.2044 79.6287 91.2024 79.6277 91.1994 79.6267C91.2034 79.6277 91.2044 79.6277 91.2074 79.6297Z" fill="white"/>
</mask>
<g mask="url(#mask4_4190_2988)">
<path d="M58.638 159.528H58.6369C58.638 159.528 58.638 159.528 58.638 159.528ZM58.5918 159.518C58.5878 159.517 58.5828 159.515 58.5787 159.514C58.5828 159.515 58.5878 159.516 58.5918 159.518ZM58.5697 159.512C58.5637 159.511 58.5577 159.509 58.5506 159.508C58.5577 159.509 58.5627 159.511 58.5697 159.512ZM58.5476 159.507C44.1645 156.029 32.4992 143.496 27.7527 123.105C32.596 124.787 39.868 127.046 46.9767 128.248V132.921L47.5843 133.06C47.6721 133.08 56.4872 135.064 66.9994 135.064C77.5116 135.064 86.3267 133.08 86.414 133.06L87.0222 132.921V128.248C88.6973 127.965 90.3804 127.623 92.0405 127.244C86.0758 138.57 75.5063 147.483 63.2146 151.143C59.4268 152.271 55.4615 152.919 51.5146 152.919C48.9924 152.919 46.4776 152.654 44.0221 152.081C48.3599 155.736 53.271 158.231 58.5476 159.507ZM66.9994 133.502C58.2395 133.502 50.6839 132.102 48.5391 131.665V126.918L47.8812 126.813C40.2117 125.588 32.2427 123.043 27.3578 121.311C26.8942 119.088 26.5108 116.776 26.2127 114.376C25.716 110.378 25.4561 106.136 25.4561 101.658C25.4561 95.4753 27.9636 90.154 32.4855 85.9567C37.374 81.4182 44.6154 78.1925 53.5866 76.6107C57.3774 76.8938 61.5606 77.0513 66.1754 77.0513C71.2528 77.0513 75.8084 76.8606 79.8933 76.5214C83.394 77.1095 86.6368 77.9456 89.5855 79.0094C97.2574 90.8445 99.4635 106.16 95.219 119.635C94.5947 121.617 93.834 123.551 92.9478 125.426C90.7036 125.968 88.3982 126.449 86.1179 126.813L85.4595 126.918V131.665C83.3167 132.103 75.7673 133.502 66.9994 133.502ZM44.182 84.5115C43.5304 84.5115 42.8724 84.6801 42.2782 85.0233C38.4722 87.2223 35.28 90.4922 33.2306 94.3844C30.4437 99.6776 29.8017 106.064 31.4798 111.807C31.6882 112.518 32.0379 113.325 32.7602 113.495C32.8546 113.517 32.9455 113.527 33.0333 113.527C34.0608 113.527 34.6436 112.086 34.8654 110.974C36.0499 105.051 39.2824 99.5602 43.884 95.648C45.3499 94.4034 47.0077 93.2402 47.8094 91.4918C48.6636 89.6301 48.3112 87.2775 46.9495 85.7469L46.9269 85.7219C46.2068 84.924 45.2023 84.5115 44.182 84.5115ZM108.542 101.658C108.542 91.7618 102.115 84.0708 91.2887 79.6628C95.3525 81.3168 98.796 83.4345 101.513 85.9567C106.035 90.154 108.542 95.4753 108.542 101.658ZM91.2867 79.6618C91.2767 79.6578 91.2666 79.6528 91.2556 79.6488C91.2656 79.6528 91.2767 79.6578 91.2867 79.6618ZM91.2074 79.6297C91.2044 79.6287 91.2024 79.6277 91.1994 79.6267C91.2034 79.6277 91.2044 79.6277 91.2074 79.6297Z" fill="url(#paint4_linear_4190_2988)"/>
</g>
<mask id="mask5_4190_2988" style="mask-type:luminance" maskUnits="userSpaceOnUse" x="27" y="121" width="66" height="15">
<path d="M67 135.063C56.4879 135.063 47.6727 133.079 47.585 133.059L46.9774 132.92V128.247C39.8686 127.045 32.5967 124.786 27.7533 123.104C27.6144 122.513 27.4826 121.915 27.3584 121.31C32.2434 123.042 40.2124 125.587 47.8818 126.812L48.5397 126.917V131.664C50.6846 132.101 58.2401 133.501 67 133.501C75.7679 133.501 83.3173 132.102 85.4601 131.664V126.917L86.1185 126.812C88.3988 126.448 90.7042 125.967 92.9484 125.425C92.6593 126.038 92.3562 126.644 92.0411 127.243C90.381 127.622 88.6979 127.964 87.0228 128.247V132.92L86.4146 133.059C86.3273 133.079 77.5122 135.063 67 135.063Z" fill="white"/>
</mask>
<g mask="url(#mask5_4190_2988)">
<path d="M67 135.063C56.4879 135.063 47.6727 133.079 47.585 133.059L46.9774 132.92V128.247C39.8686 127.045 32.5967 124.786 27.7533 123.104C27.6144 122.513 27.4826 121.915 27.3584 121.31C32.2434 123.042 40.2124 125.587 47.8818 126.812L48.5397 126.917V131.664C50.6846 132.101 58.2401 133.501 67 133.501C75.7679 133.501 83.3173 132.102 85.4601 131.664V126.917L86.1185 126.812C88.3988 126.448 90.7042 125.967 92.9484 125.425C92.6593 126.038 92.3562 126.644 92.0411 127.243C90.381 127.622 88.6979 127.964 87.0228 128.247V132.92L86.4146 133.059C86.3273 133.079 77.5122 135.063 67 135.063Z" fill="url(#paint5_linear_4190_2988)"/>
</g>
<mask id="mask6_4190_2988" style="mask-type:luminance" maskUnits="userSpaceOnUse" x="50" y="70" width="34" height="21">
<path d="M50.0986 70.5589V80.5402C50.0986 85.8324 57.6646 90.123 66.9985 90.123C76.3325 90.123 83.898 85.8324 83.898 80.5402V70.5589H50.0986Z" fill="white"/>
</mask>
<g mask="url(#mask6_4190_2988)">
<path d="M50.0986 70.5589V80.5402C50.0986 85.8324 57.6646 90.123 66.9985 90.123C76.3325 90.123 83.898 85.8324 83.898 80.5402V70.5589H50.0986Z" fill="url(#paint6_linear_4190_2988)"/>
</g>
<mask id="mask7_4190_2988" style="mask-type:luminance" maskUnits="userSpaceOnUse" x="49" y="0" width="36" height="27">
<path d="M84.9062 13.4232C84.9062 20.5601 76.8891 26.3462 67.0001 26.3462C57.1111 26.3462 49.0938 20.5601 49.0938 13.4232C49.0938 6.28522 49.0938 0.500168 67.0001 0.500168C84.9062 0.500168 84.9062 6.28522 84.9062 13.4232Z" fill="white"/>
</mask>
<g mask="url(#mask7_4190_2988)">
<path d="M84.9057 13.4236C84.9057 20.5611 76.8883 26.3477 66.9993 26.3477C57.1104 26.3477 49.093 20.5611 49.093 13.4236C49.093 6.2861 49.093 0.500822 66.9993 0.500822C84.9057 0.500822 84.9057 6.2861 84.9057 13.4236Z" fill="url(#paint7_linear_4190_2988)"/>
</g>
<mask id="mask8_4190_2988" style="mask-type:luminance" maskUnits="userSpaceOnUse" x="17" y="6" width="99" height="72">
<path d="M66.176 77.0503C61.5612 77.0503 57.378 76.8927 53.5872 76.6097C39.7191 75.5709 31.0964 72.841 25.7414 69.9444C20.3774 67.0439 17.0391 61.4325 17.0391 55.3343V28.595C17.0391 22.4969 20.3774 16.8854 25.7414 13.9839C32.56 10.2965 44.6785 6.87804 66.176 6.87804C87.6732 6.87804 99.7913 10.2965 106.61 13.9839C111.975 16.8854 115.313 22.4969 115.313 28.595V55.3343C115.313 61.4325 111.975 67.0439 106.61 69.9444C101.402 72.7617 93.1039 75.4214 79.8939 76.5204C75.809 76.8596 71.2535 77.0503 66.176 77.0503ZM67 18.6649C45.5276 18.6649 34.5049 22.1877 29.0392 25.1445C25.3528 27.1377 23.0628 30.9837 23.0628 35.182V55.6946C23.0628 59.8929 25.3527 63.7389 29.0392 65.7321C34.5048 68.6889 45.5274 72.2127 67 72.2127C88.4731 72.2127 99.4952 68.6889 104.961 65.7321C108.647 63.7389 110.937 59.8929 110.937 55.6946V35.182C110.937 30.9837 108.647 27.1377 104.961 25.1445C99.4952 22.1877 88.4721 18.6649 67 18.6649ZM39.0957 12.6922C38.905 12.6922 38.7115 12.7133 38.5187 12.7584C35.0908 13.5603 31.7256 14.5841 28.671 16.3053C25.1518 18.2865 21.6563 21.5203 20.3519 26.655C20.183 27.3204 20.7173 27.8232 21.2751 27.8232C21.5283 27.8232 21.7863 27.7199 21.9855 27.48C24.5242 24.4239 29.718 20.065 39.6847 17.7396C41.1544 17.3963 42.0017 15.8547 41.4993 14.4315C41.4935 14.4145 41.4878 14.3984 41.4821 14.3823C41.1182 13.3516 40.1476 12.6922 39.0957 12.6922Z" fill="white"/>
</mask>
<g mask="url(#mask8_4190_2988)">
<path d="M66.1759 77.0513C61.5611 77.0513 57.3779 76.8936 53.5871 76.6104C39.7191 75.5711 31.0963 72.8413 25.7414 69.9454C20.3774 67.0448 17.0391 61.4334 17.0391 55.3346V28.5956C17.0391 22.4981 20.3774 16.8867 25.7414 13.9849C32.56 10.2969 44.6784 6.87901 66.1759 6.87901C87.6726 6.87901 99.7913 10.2969 106.609 13.9849C111.974 16.8867 115.312 22.4981 115.312 28.5956V55.3346C115.312 61.4334 111.974 67.0448 106.609 69.9454C101.402 72.7624 93.1035 75.4218 79.8941 76.5208C75.8088 76.8601 71.2533 77.0513 66.1759 77.0513ZM66.9998 18.6656C45.5275 18.6656 34.5048 22.1886 29.0392 25.1454C25.3527 27.1393 23.0628 30.985 23.0628 35.183V55.6954C23.0628 59.8935 25.3527 63.7391 29.0392 65.733C34.5047 68.6886 45.5273 72.2129 66.9998 72.2129C88.473 72.2129 99.495 68.6886 104.961 65.733C108.647 63.7391 110.936 59.8935 110.936 55.6954V35.183C110.936 30.985 108.647 27.1393 104.961 25.1454C99.495 22.1886 88.4718 18.6656 66.9998 18.6656ZM39.0956 12.6922C38.905 12.6922 38.7115 12.715 38.5187 12.7592C35.0908 13.5608 31.7256 14.5858 28.6709 16.3061C25.1518 18.2881 21.6563 21.5208 20.3519 26.6555C20.1831 27.3209 20.7173 27.8239 21.2751 27.8239C21.5283 27.8239 21.7863 27.72 21.9855 27.481C24.5242 24.4251 29.7179 20.0657 39.6847 17.7409C41.1543 17.3968 42.0016 15.8545 41.4992 14.4317C41.4934 14.4162 41.4878 14.3994 41.482 14.3827C41.1183 13.3529 40.1476 12.6922 39.0956 12.6922Z" fill="url(#paint8_linear_4190_2988)"/>
</g>
<mask id="mask9_4190_2988" style="mask-type:luminance" maskUnits="userSpaceOnUse" x="39" y="39" width="14" height="10">
<path d="M52.7931 45.8501C52.7931 49.5385 49.8027 47.7039 46.1138 47.7039C42.4249 47.7039 39.4346 49.5385 39.4346 45.8501C39.4346 42.1617 42.4249 39.1708 46.1138 39.1708C49.8027 39.1708 52.7931 42.1617 52.7931 45.8501Z" fill="white"/>
</mask>
<g mask="url(#mask9_4190_2988)">
<path d="M52.7931 45.8501C52.7931 49.5385 49.8027 47.7039 46.1138 47.7039C42.4249 47.7039 39.4346 49.5385 39.4346 45.8501C39.4346 42.1617 42.4249 39.1708 46.1138 39.1708C49.8027 39.1708 52.7931 42.1617 52.7931 45.8501Z" fill="#133798"/>
</g>
<path d="M72.3465 56.904C72.3465 58.3814 71.7483 59.7172 70.7808 60.6848C69.8122 61.6533 68.4764 62.2515 67 62.2515C64.0473 62.2515 61.6536 59.8577 61.6536 56.904C61.6536 56.6942 61.7389 56.5025 61.8774 56.364C62.0149 56.2265 62.2066 56.1402 62.4173 56.1402H71.5827C72.0042 56.1402 72.3465 56.4835 72.3465 56.904Z" fill="#133798"/>
<mask id="mask10_4190_2988" style="mask-type:luminance" maskUnits="userSpaceOnUse" x="61" y="56" width="12" height="7">
<path d="M67.0007 62.2524C64.048 62.2524 61.6543 59.8587 61.6543 56.905C61.6543 56.6952 61.7396 56.5035 61.8781 56.365C62.0156 56.2275 62.2073 56.1412 62.4181 56.1412H71.5834C72.0049 56.1412 72.3472 56.4845 72.3472 56.905C72.3472 58.3824 71.749 59.7182 70.7815 60.6857C69.813 61.6543 68.4771 62.2524 67.0007 62.2524Z" fill="white"/>
</mask>
<g mask="url(#mask10_4190_2988)">
<rect x="61.6204" y="56.1196" width="10.7511" height="6.15438" fill="#133798"/>
</g>
<mask id="mask11_4190_2988" style="mask-type:luminance" maskUnits="userSpaceOnUse" x="81" y="39" width="14" height="10">
<path d="M94.4904 45.8496C94.4904 49.538 91.5006 47.7034 87.8111 47.7034C84.1227 47.7034 81.1318 49.538 81.1318 45.8496C81.1318 42.1612 84.1227 39.1703 87.8111 39.1703C91.5006 39.1703 94.4904 42.1612 94.4904 45.8496Z" fill="white"/>
</mask>
<g mask="url(#mask11_4190_2988)">
<path d="M94.4904 45.8496C94.4904 49.538 91.5006 47.7034 87.8111 47.7034C84.1227 47.7034 81.1318 49.538 81.1318 45.8496C81.1318 42.1612 84.1227 39.1703 87.8111 39.1703C91.5006 39.1703 94.4904 42.1612 94.4904 45.8496Z" fill="#133798"/>
</g>
<path d="M67.0001 160.5C64.1367 160.5 61.3395 160.174 58.6387 159.527C61.3395 160.174 64.1357 160.5 67.0001 160.5C85.1601 160.5 100.599 147.364 106.247 123.104C106.283 122.948 106.319 122.792 106.355 122.635C106.32 122.792 106.284 122.948 106.247 123.104C100.599 147.364 85.1601 160.5 67.0001 160.5ZM58.6377 159.527C58.6306 159.526 58.6236 159.524 58.6156 159.522C58.6226 159.524 58.6306 159.526 58.6377 159.527ZM106.566 121.676C106.591 121.554 106.616 121.433 106.641 121.31C107.105 119.087 107.488 116.775 107.786 114.375C107.786 114.376 107.786 114.375 107.786 114.376C107.488 116.776 107.106 119.087 106.642 121.31C106.617 121.433 106.591 121.554 106.566 121.676ZM91.2272 79.6359C91.2212 79.6339 91.2142 79.6308 91.2081 79.6288C91.2142 79.6308 91.2202 79.6339 91.2272 79.6359ZM91.2001 79.6258C90.6722 79.412 90.1352 79.2063 89.5862 79.0086C89.5862 79.0076 89.5872 79.0086 89.5862 79.0086C90.1342 79.2063 90.6722 79.412 91.2001 79.6258Z" fill="#F5F5F4"/>
<mask id="mask12_4190_2988" style="mask-type:luminance" maskUnits="userSpaceOnUse" x="107" y="109" width="2" height="6">
<path d="M107.787 114.375C107.787 114.374 107.787 114.375 107.787 114.374C108.003 112.643 108.174 110.868 108.297 109.046C108.174 110.868 108.003 112.644 107.787 114.375Z" fill="white"/>
</mask>
<g mask="url(#mask12_4190_2988)">
<path d="M107.787 114.375C107.787 114.374 107.787 114.375 107.787 114.374C108.003 112.643 108.174 110.868 108.297 109.046C108.174 110.868 108.003 112.644 107.787 114.375Z" fill="url(#paint9_linear_4190_2988)"/>
</g>
<mask id="mask13_4190_2988" style="mask-type:luminance" maskUnits="userSpaceOnUse" x="44" y="79" width="65" height="82">
<path d="M67.0007 160.5C64.1363 160.5 61.3401 160.174 58.6393 159.527C58.6393 159.527 58.6393 159.527 58.6383 159.527C58.6313 159.526 58.6232 159.524 58.6162 159.522C58.6132 159.521 58.6102 159.521 58.6072 159.52C58.6022 159.519 58.5982 159.518 58.5931 159.517C58.5891 159.515 58.5841 159.514 58.5801 159.513C58.5771 159.513 58.5741 159.512 58.5711 159.511C58.564 159.51 58.559 159.508 58.552 159.507C58.551 159.506 58.55 159.506 58.549 159.506C53.2724 158.23 48.3612 155.735 44.0234 152.08C46.479 152.653 48.9937 152.918 51.516 152.918C55.4629 152.918 59.4282 152.27 63.216 151.142C75.5077 147.482 86.0771 138.569 92.0418 127.243C97.4244 126.013 102.545 124.39 106.247 123.104C100.6 147.364 85.1608 160.5 67.0007 160.5ZM92.9491 125.425C93.8353 123.551 94.5961 121.617 95.2204 119.634C99.4648 106.159 97.2588 90.8436 89.5869 79.0086C90.1359 79.2063 90.6728 79.412 91.2007 79.6258C91.2038 79.6268 91.2058 79.6278 91.2088 79.6288C91.2148 79.6308 91.2218 79.6339 91.2278 79.6359C91.2369 79.6399 91.2459 79.6439 91.2549 79.6469C91.2559 79.6479 91.2559 79.6479 91.2569 79.6479C91.268 79.6519 91.278 79.6569 91.2881 79.661C91.2891 79.661 91.2891 79.6609 91.2901 79.662C102.116 84.07 108.544 91.761 108.544 101.657C108.544 104.197 108.461 106.66 108.297 109.047C108.173 110.868 108.003 112.644 107.787 114.375C107.489 116.775 107.106 119.087 106.642 121.31C103.209 122.527 98.2534 124.146 92.9491 125.425Z" fill="white"/>
</mask>
<g mask="url(#mask13_4190_2988)">
<path d="M67.0007 160.5C64.1363 160.5 61.3401 160.174 58.6393 159.527C58.6393 159.527 58.6393 159.527 58.6383 159.527C58.6313 159.526 58.6232 159.524 58.6162 159.522C58.6132 159.521 58.6102 159.521 58.6072 159.52C58.6022 159.519 58.5982 159.518 58.5931 159.517C58.5891 159.515 58.5841 159.514 58.5801 159.513C58.5771 159.513 58.5741 159.512 58.5711 159.511C58.564 159.51 58.559 159.508 58.552 159.507C58.551 159.506 58.55 159.506 58.549 159.506C53.2724 158.23 48.3612 155.735 44.0234 152.08C46.479 152.653 48.9937 152.918 51.516 152.918C55.4629 152.918 59.4282 152.27 63.216 151.142C75.5077 147.482 86.0771 138.569 92.0418 127.243C97.4244 126.013 102.545 124.39 106.247 123.104C100.6 147.364 85.1608 160.5 67.0007 160.5ZM92.9491 125.425C93.8353 123.551 94.5961 121.617 95.2204 119.634C99.4648 106.159 97.2588 90.8436 89.5869 79.0086C90.1359 79.2063 90.6728 79.412 91.2007 79.6258C91.2038 79.6268 91.2058 79.6278 91.2088 79.6288C91.2148 79.6308 91.2218 79.6339 91.2278 79.6359C91.2369 79.6399 91.2459 79.6439 91.2549 79.6469C91.2559 79.6479 91.2559 79.6479 91.2569 79.6479C91.268 79.6519 91.278 79.6569 91.2881 79.661C91.2891 79.661 91.2891 79.6609 91.2901 79.662C102.116 84.07 108.544 91.761 108.544 101.657C108.544 104.197 108.461 106.66 108.297 109.047C108.173 110.868 108.003 112.644 107.787 114.375C107.489 116.775 107.106 119.087 106.642 121.31C103.209 122.527 98.2534 124.146 92.9491 125.425Z" fill="url(#paint10_linear_4190_2988)"/>
</g>
<mask id="mask14_4190_2988" style="mask-type:luminance" maskUnits="userSpaceOnUse" x="92" y="121" width="15" height="7">
<path d="M92.041 127.243C92.3562 126.644 92.6593 126.038 92.9483 125.426C98.2526 124.146 103.209 122.527 106.641 121.311C106.616 121.433 106.591 121.554 106.566 121.676C106.498 121.997 106.427 122.317 106.355 122.635C106.319 122.792 106.283 122.949 106.247 123.104C102.544 124.39 97.4236 126.013 92.041 127.243Z" fill="white"/>
</mask>
<g mask="url(#mask14_4190_2988)">
<path d="M92.041 127.243C92.3562 126.644 92.6593 126.038 92.9483 125.426C98.2526 124.146 103.209 122.527 106.641 121.311C106.616 121.433 106.591 121.554 106.566 121.676C106.498 121.997 106.427 122.317 106.355 122.635C106.319 122.792 106.283 122.949 106.247 123.104C102.544 124.39 97.4236 126.013 92.041 127.243Z" fill="url(#paint11_linear_4190_2988)"/>
</g>
<mask id="mask15_4190_2988" style="mask-type:luminance" maskUnits="userSpaceOnUse" x="30" y="84" width="19" height="30">
<path d="M33.0341 113.526C32.9463 113.526 32.8553 113.516 32.761 113.494C32.0387 113.325 31.689 112.518 31.4805 111.806C29.8024 106.063 30.4445 99.677 33.2314 94.3837C35.2808 90.4916 38.473 87.2217 42.279 85.0227C42.8732 84.6794 43.5312 84.5108 44.1827 84.5108C45.203 84.5108 46.2076 84.9233 46.9276 85.7212L46.9503 85.7463C48.3119 87.2769 48.6643 89.6294 47.8101 91.4912C47.0084 93.2396 45.3507 94.4028 43.8848 95.6473C39.2832 99.5596 36.0507 105.051 34.8661 110.973C34.6443 112.085 34.0615 113.526 33.0341 113.526Z" fill="white"/>
</mask>
<g mask="url(#mask15_4190_2988)">
<path d="M33.0341 113.526C32.9463 113.526 32.8553 113.516 32.761 113.494C32.0387 113.325 31.689 112.518 31.4805 111.806C29.8024 106.063 30.4445 99.677 33.2314 94.3837C35.2808 90.4916 38.473 87.2217 42.279 85.0227C42.8732 84.6794 43.5312 84.5108 44.1827 84.5108C45.203 84.5108 46.2076 84.9233 46.9276 85.7212L46.9503 85.7463C48.3119 87.2769 48.6643 89.6294 47.8101 91.4912C47.0084 93.2396 45.3507 94.4028 43.8848 95.6473C39.2832 99.5596 36.0507 105.051 34.8661 110.973C34.6443 112.085 34.0615 113.526 33.0341 113.526Z" fill="url(#paint12_linear_4190_2988)"/>
</g>
<mask id="mask16_4190_2988" style="mask-type:luminance" maskUnits="userSpaceOnUse" x="20" y="12" width="22" height="16">
<path d="M21.2752 27.8232C20.7175 27.8232 20.1831 27.3204 20.352 26.655C21.6564 21.5203 25.1519 18.2866 28.6711 16.3054C31.7257 14.5841 35.0909 13.5604 38.5188 12.7584C38.7116 12.7133 38.9051 12.6922 39.0958 12.6922C40.1477 12.6922 41.1184 13.3516 41.4822 14.3824C41.4879 14.3984 41.4936 14.4145 41.4995 14.4315C42.0018 15.8547 41.1545 17.3963 39.6849 17.7396C29.7181 20.065 24.5243 24.4239 21.9856 27.48C21.7865 27.7199 21.5284 27.8232 21.2752 27.8232Z" fill="white"/>
</mask>
<g mask="url(#mask16_4190_2988)">
<path d="M21.2752 27.8237C20.7175 27.8237 20.1832 27.3196 20.352 26.6543C21.6564 21.5199 25.1518 18.2863 28.6711 16.3044C31.7257 14.5844 35.091 13.5598 38.5189 12.759C38.7116 12.7138 38.9052 12.6918 39.0958 12.6918C40.1477 12.6918 41.1184 13.3512 41.4822 14.3816C41.488 14.3978 41.4937 14.4152 41.4995 14.4314C42.0018 15.8535 41.1545 17.3962 39.6849 17.7392C29.7181 20.0654 24.5243 24.4244 21.9855 27.4795C21.7864 27.7194 21.5284 27.8237 21.2752 27.8237Z" fill="url(#paint13_linear_4190_2988)"/>
</g>
<defs>
<linearGradient id="paint0_linear_4190_2988" x1="10.2955" y1="33.5067" x2="21.5566" y2="33.5067" gradientUnits="userSpaceOnUse">
<stop stop-color="#DEE3EB"/>
<stop offset="1" stop-color="#939AA7"/>
</linearGradient>
<linearGradient id="paint1_linear_4190_2988" x1="122.677" y1="33.5067" x2="133.938" y2="33.5067" gradientUnits="userSpaceOnUse">
<stop stop-color="#939AA7"/>
<stop offset="1" stop-color="#DEE3EB"/>
</linearGradient>
<linearGradient id="paint2_linear_4190_2988" x1="-3.27144" y1="115.69" x2="33.8919" y2="115.69" gradientUnits="userSpaceOnUse">
<stop stop-color="#DEE3EB"/>
<stop offset="1" stop-color="#939AA7"/>
</linearGradient>
<linearGradient id="paint3_linear_4190_2988" x1="104.301" y1="108.932" x2="144.388" y2="108.932" gradientUnits="userSpaceOnUse">
<stop stop-color="#939AA7"/>
<stop offset="1" stop-color="#DEE3EB"/>
</linearGradient>
<linearGradient id="paint4_linear_4190_2988" x1="66.9994" y1="100.32" x2="66.9994" y2="174.67" gradientUnits="userSpaceOnUse">
<stop stop-color="#DEE3EB"/>
<stop offset="1" stop-color="#939AA7"/>
</linearGradient>
<linearGradient id="paint5_linear_4190_2988" x1="67" y1="125.782" x2="67" y2="137.608" gradientUnits="userSpaceOnUse">
<stop stop-color="#939AA7"/>
<stop offset="0.998853" stop-color="#A9B0B6"/>
<stop offset="1" stop-color="#A9B0B6"/>
</linearGradient>
<linearGradient id="paint6_linear_4190_2988" x1="66.9985" y1="63.984" x2="66.9985" y2="89.2929" gradientUnits="userSpaceOnUse">
<stop stop-color="#DEE3EB"/>
<stop offset="0.205554" stop-color="#DEE3EB"/>
<stop offset="1" stop-color="#939AA7"/>
</linearGradient>
<linearGradient id="paint7_linear_4190_2988" x1="92.3159" y1="-34.3984" x2="92.3159" y2="-45.0074" gradientUnits="userSpaceOnUse">
<stop stop-color="#939AA7"/>
<stop offset="1" stop-color="#DEE3EB"/>
</linearGradient>
<linearGradient id="paint8_linear_4190_2988" x1="87.031" y1="-20.7835" x2="87.031" y2="52.2804" gradientUnits="userSpaceOnUse">
<stop stop-color="#DEE3EB"/>
<stop offset="1" stop-color="#939AA7"/>
</linearGradient>
<linearGradient id="paint9_linear_4190_2988" x1="93.5323" y1="115.689" x2="130.696" y2="115.689" gradientUnits="userSpaceOnUse">
<stop stop-color="#8F96A2"/>
<stop offset="1" stop-color="#D5DBE2"/>
</linearGradient>
<linearGradient id="paint10_linear_4190_2988" x1="67.0007" y1="100.319" x2="67.0007" y2="174.669" gradientUnits="userSpaceOnUse">
<stop stop-color="#D5DBE2"/>
<stop offset="1" stop-color="#8F96A2"/>
</linearGradient>
<linearGradient id="paint11_linear_4190_2988" x1="66.9999" y1="125.782" x2="66.9999" y2="137.608" gradientUnits="userSpaceOnUse">
<stop stop-color="#8F96A2"/>
<stop offset="0.998853" stop-color="#A4ACB1"/>
<stop offset="1" stop-color="#A4ACB1"/>
</linearGradient>
<linearGradient id="paint12_linear_4190_2988" x1="67.0001" y1="100.319" x2="67.0001" y2="174.669" gradientUnits="userSpaceOnUse">
<stop stop-color="#EDF0F4"/>
<stop offset="1" stop-color="#C5C8CF"/>
</linearGradient>
<linearGradient id="paint13_linear_4190_2988" x1="83.1374" y1="-14.145" x2="83.1374" y2="56.7379" gradientUnits="userSpaceOnUse">
<stop stop-color="#EDF0F4"/>
<stop offset="1" stop-color="#C5C8CF"/>
</linearGradient>
</defs>
</svg>
