<svg width="20" height="20" viewBox="0 0 20 20" fill="none" xmlns="http://www.w3.org/2000/svg">
<path d="M17.9531 9.20414C18.2065 9.55941 18.3332 9.73704 18.3332 9.99999C18.3332 10.2629 18.2065 10.4406 17.9531 10.7958C16.8148 12.3921 13.9075 15.8333 9.99984 15.8333C6.09215 15.8333 3.18492 12.3921 2.04654 10.7958C1.79318 10.4406 1.6665 10.2629 1.6665 9.99999C1.6665 9.73704 1.79318 9.55941 2.04654 9.20414C3.18492 7.60786 6.09215 4.16666 9.99984 4.16666C13.9075 4.16666 16.8148 7.60786 17.9531 9.20414Z" stroke="#667085" stroke-width="1.5"/>
<path d="M12.5 10C12.5 8.61929 11.3807 7.5 10 7.5C8.61929 7.5 7.5 8.61929 7.5 10C7.5 11.3807 8.61929 12.5 10 12.5C11.3807 12.5 12.5 11.3807 12.5 10Z" stroke="#667085" stroke-width="1.5"/>
</svg>
