<svg width="29" height="29" viewBox="0 0 29 29" fill="none" xmlns="http://www.w3.org/2000/svg">
<path d="M26.4234 8.02178L25.7652 6.87964C25.2675 6.01587 25.0186 5.58398 24.5952 5.41176C24.1718 5.23954 23.6929 5.37544 22.7351 5.64723L21.1081 6.10549C20.4967 6.2465 19.8551 6.16651 19.2968 5.87964L18.8476 5.62048C18.3688 5.31383 18.0006 4.8617 17.7967 4.33024L17.3515 3.00039C17.0587 2.12037 16.9123 1.68036 16.5638 1.42868C16.2153 1.177 15.7524 1.177 14.8266 1.177L13.3402 1.177C12.4144 1.177 11.9515 1.177 11.603 1.42868C11.2545 1.68036 11.1081 2.12037 10.8154 3.00039L10.3701 4.33024C10.1662 4.8617 9.79798 5.31383 9.3192 5.62048L8.87002 5.87964C8.31169 6.16651 7.67016 6.2465 7.05869 6.10549L5.4317 5.64723C4.47392 5.37544 3.99504 5.23954 3.5716 5.41176C3.14817 5.58398 2.8993 6.01587 2.40158 6.87964L1.74346 8.02178C1.27692 8.83144 1.04364 9.23627 1.08892 9.66724C1.13419 10.0982 1.44648 10.4455 2.07105 11.1401L3.44578 12.677C3.78177 13.1024 4.02032 13.8437 4.02032 14.5101C4.02032 15.177 3.78185 15.9181 3.44581 16.3435L2.07106 17.8805C1.44648 18.5751 1.1342 18.9224 1.08892 19.3533C1.04364 19.7843 1.27692 20.1891 1.74346 20.9988L2.40156 22.1409C2.89928 23.0046 3.14816 23.4366 3.5716 23.6088C3.99504 23.781 4.47394 23.6451 5.43173 23.3733L7.05863 22.915C7.67021 22.774 8.31186 22.854 8.87026 23.141L9.31937 23.4002C9.79805 23.7068 10.1662 24.1589 10.37 24.6903L10.8154 26.0203C11.1081 26.9003 11.2545 27.3403 11.603 27.592C11.9515 27.8437 12.4144 27.8437 13.3402 27.8437H14.8266C15.7524 27.8437 16.2153 27.8437 16.5638 27.592C16.9123 27.3403 17.0587 26.9003 17.3515 26.0203L17.7968 24.6903C18.0006 24.1589 18.3688 23.7068 18.8474 23.4002L19.2965 23.141C19.8549 22.854 20.4966 22.774 21.1082 22.915L22.7351 23.3733C23.6929 23.6451 24.1718 23.781 24.5952 23.6088C25.0186 23.4366 25.2675 23.0046 25.7652 22.1409L25.7653 22.1409L26.4234 20.9988C26.8899 20.1891 27.1232 19.7843 27.0779 19.3533C27.0326 18.9224 26.7203 18.5751 26.0958 17.8805L24.721 16.3435C24.385 15.9181 24.1465 15.177 24.1465 14.5101C24.1465 13.8437 24.385 13.1024 24.721 12.677L26.0958 11.1401C26.7203 10.4455 27.0326 10.0982 27.0779 9.66724C27.1232 9.23627 26.8899 8.83144 26.4234 8.02178Z" stroke="#091F6D" stroke-width="2" stroke-linecap="round"/>
<path d="M18.6927 14.4999C18.6927 17.0772 16.6034 19.1666 14.026 19.1666C11.4487 19.1666 9.35938 17.0772 9.35938 14.4999C9.35938 11.9226 11.4487 9.83325 14.026 9.83325C16.6034 9.83325 18.6927 11.9226 18.6927 14.4999Z" stroke="#091F6D" stroke-width="2"/>
</svg>
