<svg width="29" height="29" viewBox="0 0 29 29" fill="none" xmlns="http://www.w3.org/2000/svg">
<path d="M26.4233 8.02184L25.7652 6.8797C25.2675 6.01593 25.0186 5.58404 24.5952 5.41182C24.1717 5.2396 23.6929 5.3755 22.7351 5.64729L21.1081 6.10555C20.4966 6.24656 19.8551 6.16657 19.2968 5.8797L18.8476 5.62054C18.3688 5.31389 18.0005 4.86176 17.7967 4.3303L17.3514 3.00046C17.0587 2.12043 16.9123 1.68042 16.5638 1.42874C16.2153 1.17706 15.7524 1.17706 14.8266 1.17706L13.3402 1.17706C12.4144 1.17706 11.9515 1.17706 11.603 1.42874C11.2545 1.68042 11.1081 2.12043 10.8153 3.00046L10.37 4.3303C10.1662 4.86176 9.79794 5.31389 9.31916 5.62054L8.86998 5.8797C8.31165 6.16657 7.67012 6.24656 7.05865 6.10555L5.43166 5.64729C4.47389 5.3755 3.995 5.2396 3.57156 5.41182C3.14813 5.58404 2.89927 6.01593 2.40154 6.8797L1.74342 8.02184C1.27688 8.8315 1.04361 9.23634 1.08888 9.6673C1.13415 10.0983 1.44644 10.4455 2.07102 11.1401L3.44574 12.6771C3.78173 13.1024 4.02028 13.8437 4.02028 14.5102C4.02028 15.1771 3.78181 15.9181 3.44577 16.3436L2.07102 17.8805C1.44645 18.5751 1.13416 18.9224 1.08888 19.3534C1.04361 19.7843 1.27689 20.1892 1.74343 20.9988L2.40152 22.1409C2.89924 23.0047 3.14813 23.4366 3.57156 23.6088C3.99501 23.7811 4.4739 23.6452 5.43169 23.3733L7.05859 22.9151C7.67017 22.774 8.31182 22.8541 8.87023 23.141L9.31933 23.4002C9.79801 23.7069 10.1662 24.159 10.37 24.6904L10.8153 26.0203C11.1081 26.9004 11.2545 27.3404 11.603 27.5921C11.9515 27.8437 12.4144 27.8437 13.3402 27.8437H14.8266C15.7524 27.8437 16.2153 27.8437 16.5638 27.5921C16.9123 27.3404 17.0587 26.9004 17.3514 26.0203L17.7967 24.6904C18.0005 24.159 18.3687 23.7069 18.8474 23.4002L19.2965 23.141C19.8549 22.8541 20.4966 22.774 21.1081 22.9151L22.735 23.3733C23.6928 23.6452 24.1717 23.7811 24.5952 23.6088C25.0186 23.4366 25.2675 23.0047 25.7652 22.141L25.7652 22.1409L26.4233 20.9988C26.8899 20.1892 27.1231 19.7843 27.0779 19.3534C27.0326 18.9224 26.7203 18.5751 26.0957 17.8805L24.721 16.3436C24.3849 15.9181 24.1465 15.1771 24.1465 14.5102C24.1465 13.8437 24.385 13.1024 24.721 12.6771L26.0957 11.1401C26.7203 10.4455 27.0326 10.0983 27.0779 9.6673C27.1231 9.23634 26.8899 8.8315 26.4233 8.02184Z" stroke="#344054" stroke-width="2" stroke-linecap="round"/>
<path d="M18.6927 14.5C18.6927 17.0773 16.6034 19.1666 14.026 19.1666C11.4487 19.1666 9.35938 17.0773 9.35938 14.5C9.35938 11.9227 11.4487 9.83331 14.026 9.83331C16.6034 9.83331 18.6927 11.9227 18.6927 14.5Z" stroke="#344054" stroke-width="2"/>
</svg>
