<svg width="30" height="29" viewBox="0 0 30 29" fill="none" xmlns="http://www.w3.org/2000/svg">
<path d="M1.66666 6.49999C1.66666 3.98583 1.66666 2.72875 2.44771 1.94771C3.22876 1.16666 4.48584 1.16666 7 1.16666C9.51415 1.16666 10.7712 1.16666 11.5523 1.94771C12.3333 2.72875 12.3333 3.98583 12.3333 6.49999V9.16666C12.3333 11.6808 12.3333 12.9379 11.5523 13.7189C10.7712 14.5 9.51415 14.5 7 14.5C4.48584 14.5 3.22876 14.5 2.44771 13.7189C1.66666 12.9379 1.66666 11.6808 1.66666 9.16666V6.49999Z" stroke="#344054" stroke-width="2"/>
<path d="M1.66666 23.8333C1.66666 22.5908 1.66666 21.9695 1.86965 21.4795C2.1403 20.8261 2.65943 20.307 3.31284 20.0363C3.8029 19.8333 4.42415 19.8333 5.66666 19.8333H8.33333C9.57584 19.8333 10.1971 19.8333 10.6872 20.0363C11.3406 20.307 11.8597 20.8261 12.1303 21.4795C12.3333 21.9695 12.3333 22.5908 12.3333 23.8333C12.3333 25.0758 12.3333 25.6971 12.1303 26.1871C11.8597 26.8405 11.3406 27.3597 10.6872 27.6303C10.1971 27.8333 9.57584 27.8333 8.33333 27.8333H5.66666C4.42415 27.8333 3.8029 27.8333 3.31284 27.6303C2.65943 27.3597 2.1403 26.8405 1.86965 26.1871C1.66666 25.6971 1.66666 25.0758 1.66666 23.8333Z" stroke="#344054" stroke-width="2"/>
<path d="M17.6667 19.8333C17.6667 17.3192 17.6667 16.0621 18.4477 15.281C19.2288 14.5 20.4858 14.5 23 14.5C25.5142 14.5 26.7712 14.5 27.5523 15.281C28.3333 16.0621 28.3333 17.3192 28.3333 19.8333V22.5C28.3333 25.0142 28.3333 26.2712 27.5523 27.0523C26.7712 27.8333 25.5142 27.8333 23 27.8333C20.4858 27.8333 19.2288 27.8333 18.4477 27.0523C17.6667 26.2712 17.6667 25.0142 17.6667 22.5V19.8333Z" stroke="#344054" stroke-width="2"/>
<path d="M17.6667 5.16666C17.6667 3.92415 17.6667 3.30289 17.8697 2.81283C18.1403 2.15943 18.6594 1.64029 19.3128 1.36964C19.8029 1.16666 20.4242 1.16666 21.6667 1.16666H24.3333C25.5758 1.16666 26.1971 1.16666 26.6872 1.36964C27.3406 1.64029 27.8597 2.15943 28.1303 2.81283C28.3333 3.30289 28.3333 3.92415 28.3333 5.16666C28.3333 6.40917 28.3333 7.03042 28.1303 7.52048C27.8597 8.17389 27.3406 8.69302 26.6872 8.96367C26.1971 9.16666 25.5758 9.16666 24.3333 9.16666H21.6667C20.4242 9.16666 19.8029 9.16666 19.3128 8.96367C18.6594 8.69302 18.1403 8.17389 17.8697 7.52048C17.6667 7.03042 17.6667 6.40917 17.6667 5.16666Z" stroke="#344054" stroke-width="2"/>
</svg>
