<svg width="30" height="29" viewBox="0 0 30 29" fill="none" xmlns="http://www.w3.org/2000/svg">
<path d="M1.6665 6.50002C1.6665 3.98586 1.6665 2.72878 2.44755 1.94774C3.2286 1.16669 4.48568 1.16669 6.99984 1.16669C9.51399 1.16669 10.7711 1.16669 11.5521 1.94774C12.3332 2.72878 12.3332 3.98586 12.3332 6.50002V9.16669C12.3332 11.6808 12.3332 12.9379 11.5521 13.719C10.7711 14.5 9.51399 14.5 6.99984 14.5C4.48568 14.5 3.2286 14.5 2.44755 13.719C1.6665 12.9379 1.6665 11.6808 1.6665 9.16669V6.50002Z" stroke="#091F6D" stroke-width="2"/>
<path d="M1.6665 23.8333C1.6665 22.5908 1.6665 21.9696 1.86949 21.4795C2.14014 20.8261 2.65927 20.307 3.31268 20.0363C3.80274 19.8333 4.42399 19.8333 5.6665 19.8333H8.33317C9.57568 19.8333 10.1969 19.8333 10.687 20.0363C11.3404 20.307 11.8595 20.8261 12.1302 21.4795C12.3332 21.9696 12.3332 22.5908 12.3332 23.8333C12.3332 25.0759 12.3332 25.6971 12.1302 26.1872C11.8595 26.8406 11.3404 27.3597 10.687 27.6304C10.1969 27.8333 9.57568 27.8333 8.33317 27.8333H5.6665C4.42399 27.8333 3.80274 27.8333 3.31268 27.6304C2.65927 27.3597 2.14014 26.8406 1.86949 26.1872C1.6665 25.6971 1.6665 25.0759 1.6665 23.8333Z" stroke="#091F6D" stroke-width="2"/>
<path d="M17.6665 19.8333C17.6665 17.3192 17.6665 16.0621 18.4476 15.281C19.2286 14.5 20.4857 14.5 22.9998 14.5C25.514 14.5 26.7711 14.5 27.5521 15.281C28.3332 16.0621 28.3332 17.3192 28.3332 19.8333V22.5C28.3332 25.0142 28.3332 26.2712 27.5521 27.0523C26.7711 27.8333 25.514 27.8333 22.9998 27.8333C20.4857 27.8333 19.2286 27.8333 18.4476 27.0523C17.6665 26.2712 17.6665 25.0142 17.6665 22.5V19.8333Z" stroke="#091F6D" stroke-width="2"/>
<path d="M17.6665 5.16669C17.6665 3.92418 17.6665 3.30292 17.8695 2.81286C18.1401 2.15946 18.6593 1.64033 19.3127 1.36967C19.8027 1.16669 20.424 1.16669 21.6665 1.16669H24.3332C25.5757 1.16669 26.1969 1.16669 26.687 1.36967C27.3404 1.64033 27.8595 2.15946 28.1302 2.81286C28.3332 3.30292 28.3332 3.92418 28.3332 5.16669C28.3332 6.4092 28.3332 7.03045 28.1302 7.52051C27.8595 8.17392 27.3404 8.69305 26.687 8.9637C26.1969 9.16669 25.5757 9.16669 24.3332 9.16669H21.6665C20.424 9.16669 19.8027 9.16669 19.3127 8.9637C18.6593 8.69305 18.1401 8.17392 17.8695 7.52051C17.6665 7.03045 17.6665 6.4092 17.6665 5.16669Z" stroke="#091F6D" stroke-width="2"/>
</svg>
