<svg width="26" height="29" viewBox="0 0 26 29" fill="none" xmlns="http://www.w3.org/2000/svg">
<path d="M13.7059 1.16666C19.03 1.16666 21.692 1.16666 23.346 2.72875C25 4.29085 25 6.80501 25 11.8333V17.1667C25 22.195 25 24.7091 23.346 26.2712C21.692 27.8333 19.03 27.8333 13.7059 27.8333H12.2941C6.97002 27.8333 4.30797 27.8333 2.65398 26.2712C1 24.7091 1 22.195 1 17.1667L1 11.8333C1 6.80501 1 4.29085 2.65399 2.72875C4.30797 1.16666 6.97002 1.16666 12.2941 1.16666L13.7059 1.16666Z" stroke="#344054" stroke-width="2" stroke-linecap="round"/>
<path d="M7.66667 7.83331H18.3333" stroke="#344054" stroke-width="2" stroke-linecap="round"/>
<path d="M7.66666 14.5H18.3333" stroke="#344054" stroke-width="2" stroke-linecap="round"/>
<path d="M7.66666 21.1667H13" stroke="#344054" stroke-width="2" stroke-linecap="round"/>
</svg>
