<svg width="26" height="29" viewBox="0 0 26 29" fill="none" xmlns="http://www.w3.org/2000/svg">
<path d="M13.7059 1.16663C19.03 1.16663 21.692 1.16663 23.346 2.72872C25 4.29082 25 6.80498 25 11.8333V17.1666C25 22.1949 25 24.7091 23.346 26.2712C21.692 27.8333 19.03 27.8333 13.7059 27.8333H12.2941C6.97002 27.8333 4.30797 27.8333 2.65398 26.2712C1 24.7091 1 22.1949 1 17.1666L1 11.8333C1 6.80498 1 4.29082 2.65399 2.72872C4.30797 1.16663 6.97002 1.16663 12.2941 1.16663L13.7059 1.16663Z" stroke="#091F6D" stroke-width="2" stroke-linecap="round"/>
<path d="M7.66663 7.83325H18.3333" stroke="#091F6D" stroke-width="2" stroke-linecap="round"/>
<path d="M7.66663 14.5H18.3333" stroke="#091F6D" stroke-width="2" stroke-linecap="round"/>
<path d="M7.66663 21.1666H13" stroke="#091F6D" stroke-width="2" stroke-linecap="round"/>
</svg>
