<svg width="32" height="25" viewBox="0 0 32 25" fill="none" xmlns="http://www.w3.org/2000/svg">
<path d="M27.6986 20.5C28.6977 20.5 29.4923 19.8713 30.2058 18.9922C31.6664 17.1926 29.2683 15.7545 28.3537 15.0501C27.4239 14.3342 26.3858 13.9286 25.3332 13.8333M23.9999 11.1667C25.8408 11.1667 27.3332 9.67428 27.3332 7.83333C27.3332 5.99238 25.8408 4.5 23.9999 4.5" stroke="#091F6D" stroke-width="2" stroke-linecap="round"/>
<path d="M4.30118 20.5C3.30211 20.5 2.50746 19.8713 1.79396 18.9922C0.333355 17.1926 2.73146 15.7545 3.6461 15.0501C4.57587 14.3342 5.61401 13.9286 6.66657 13.8333M7.33324 11.1667C5.49229 11.1667 3.9999 9.67428 3.9999 7.83333C3.9999 5.99238 5.49229 4.5 7.33324 4.5" stroke="#091F6D" stroke-width="2" stroke-linecap="round"/>
<path d="M10.7783 16.6482C9.41589 17.4907 5.84384 19.2108 8.01946 21.3632C9.08223 22.4147 10.2659 23.1667 11.754 23.1667H20.2457C21.7338 23.1667 22.9175 22.4147 23.9803 21.3632C26.1559 19.2108 22.5838 17.4907 21.2215 16.6482C18.0267 14.6728 13.973 14.6728 10.7783 16.6482Z" stroke="#091F6D" stroke-width="2" stroke-linecap="round" stroke-linejoin="round"/>
<path d="M20.6665 6.49998C20.6665 9.07731 18.5772 11.1666 15.9999 11.1666C13.4225 11.1666 11.3332 9.07731 11.3332 6.49998C11.3332 3.92265 13.4225 1.83331 15.9999 1.83331C18.5772 1.83331 20.6665 3.92265 20.6665 6.49998Z" stroke="#091F6D" stroke-width="2"/>
</svg>
