<svg width="32" height="25" viewBox="0 0 32 25" fill="none" xmlns="http://www.w3.org/2000/svg">
<path d="M27.6985 20.5C28.6975 20.5 29.4922 19.8713 30.2057 18.9922C31.6663 17.1926 29.2682 15.7545 28.3536 15.0501C27.4238 14.3342 26.3856 13.9286 25.3331 13.8333M23.9998 11.1667C25.8407 11.1667 27.3331 9.67428 27.3331 7.83333C27.3331 5.99238 25.8407 4.5 23.9998 4.5" stroke="#344054" stroke-width="2" stroke-linecap="round"/>
<path d="M4.3012 20.5C3.30213 20.5 2.50748 19.8713 1.79398 18.9922C0.33337 17.1926 2.73148 15.7545 3.64611 15.0501C4.57589 14.3342 5.61403 13.9286 6.66659 13.8333M7.33325 11.1667C5.4923 11.1667 3.99992 9.67428 3.99992 7.83333C3.99992 5.99238 5.4923 4.5 7.33325 4.5" stroke="#344054" stroke-width="2" stroke-linecap="round"/>
<path d="M10.7783 16.6483C9.41595 17.4907 5.8439 19.2108 8.01952 21.3633C9.08229 22.4147 10.2659 23.1667 11.7541 23.1667H20.2457C21.7339 23.1667 22.9175 22.4147 23.9803 21.3633C26.1559 19.2108 22.5839 17.4907 21.2215 16.6483C18.0268 14.6728 13.9731 14.6728 10.7783 16.6483Z" stroke="#344054" stroke-width="2" stroke-linecap="round" stroke-linejoin="round"/>
<path d="M20.6666 6.50001C20.6666 9.07734 18.5772 11.1667 15.9999 11.1667C13.4226 11.1667 11.3333 9.07734 11.3333 6.50001C11.3333 3.92268 13.4226 1.83334 15.9999 1.83334C18.5772 1.83334 20.6666 3.92268 20.6666 6.50001Z" stroke="#344054" stroke-width="2"/>
</svg>
